<svg xmlns="http://www.w3.org/2000/svg" xmlns:xlink="http://www.w3.org/1999/xlink" version="1.1" x="0px" y="0px" viewBox="0 0 100 125" style="enable-background:new 0 0 100 100;" xml:space="preserve"><g><path d="M85,27h-6v-6c0-2.21-1.79-4-4-4H18c-2.21,0-4,1.79-4,4v44c0,2.21,1.79,4,4,4h6v7c0,2.21,1.79,4,4,4h57c2.21,0,4-1.79,4-4   V31C89,28.79,87.21,27,85,27z M24,31v36h-6c-1.1,0-2-0.9-2-2V21c0-1.1,0.9-2,2-2h57c1.1,0,2,0.9,2,2v6H28C25.79,27,24,28.79,24,31z    M87,76c0,1.1-0.9,2-2,2H28c-1.1,0-2-0.9-2-2v-5.75l18.32-18.32c1.23-1.23,3.23-1.23,4.47,0l12.77,12.77l6.77-6.77   c1.19-1.19,3.27-1.19,4.47,0L87,72.14V76z M87,69.31l-12.8-12.8c-2.01-2.01-5.28-2.01-7.29,0l-5.35,5.35L50.2,50.51   C49.23,49.54,47.93,49,46.56,49c-1.38,0-2.67,0.54-3.65,1.51L26,67.42V31c0-1.1,0.9-2,2-2h57c1.1,0,2,0.9,2,2V69.31z"/><path d="M61,40c-2.76,0-5,2.24-5,5s2.24,5,5,5s5-2.24,5-5S63.76,40,61,40z M61,48c-1.65,0-3-1.35-3-3s1.35-3,3-3s3,1.35,3,3   S62.65,48,61,48z"/></g><text x="0" y="115" fill="#000000" font-size="5px" font-weight="bold" font-family="'Helvetica Neue', Helvetica, Arial-Unicode, Arial, Sans-serif">Created by Iconamaze</text><text x="0" y="120" fill="#000000" font-size="5px" font-weight="bold" font-family="'Helvetica Neue', Helvetica, Arial-Unicode, Arial, Sans-serif">from the Noun Project</text></svg>